<svg width="178" height="124" viewBox="0 0 178 124" fill="none" xmlns="http://www.w3.org/2000/svg">
<path d="M176.933 13.5321C177.108 14.4491 177.499 17.7124 177.661 19.8025C178.119 24.63 177.782 29.6329 175.827 34.1367C175.517 34.8379 175.207 36.0785 172.254 35.2829C169.179 34.4603 167.561 33.3142 167.911 32.2893C168.721 29.7812 169.772 27.1247 169.26 24.4278C168.532 20.5577 168.505 16.7146 167.386 13.0063C167.21 12.386 167.008 11.7657 166.806 11.1589L166.684 10.7678L166.644 10.6734L166.576 10.4981C166.496 10.2689 166.374 9.98571 166.104 9.94526C165.929 9.93177 165.767 10.0396 165.646 10.161C165.592 10.2149 165.538 10.2959 165.498 10.3633L165.444 10.4712C165.43 10.4981 165.444 10.4981 165.417 10.5251L163.111 12.4669C161.749 13.6266 160.374 14.7593 158.89 15.7436C156.342 17.4427 153.361 18.508 150.665 19.9913C150.031 20.3419 149.626 21.2993 148.952 21.7038C148.386 22.041 147.469 22.6343 146.781 22.7827C146.484 22.8501 146.161 22.8905 145.999 23.1332C145.244 24.2659 144.354 23.5378 142.749 20.4229C142.398 19.7351 141.738 18.9665 141.697 18.3597C141.697 18.3327 141.684 18.2787 141.684 18.2518C141.266 15.9863 142.601 16.2696 143.356 15.6897C147.091 12.858 150.948 10.2149 154.764 7.49104L158.31 5.03682C158.904 4.6188 159.484 4.20075 160.05 3.75576L161.183 2.87931C161.709 2.47477 162.234 2.05672 162.787 1.67915C163.96 0.843104 165.268 -0.100813 166.603 0.0879727H166.576C167.291 -0.0199046 168.033 -0.0334024 168.774 0.0744749C169.476 0.195837 170.177 0.411631 170.784 0.789201C171.957 1.4904 172.928 2.5017 173.696 3.76926C174.101 4.37607 174.371 5.13119 174.654 5.85936C174.923 6.57405 175.247 7.3697 175.476 8.01696C176.029 9.72951 176.474 11.4016 176.676 13.0737C176.717 13.1951 176.892 13.3434 176.933 13.5321Z" fill="black"/>
<path d="M123.834 61.0098C126.059 59.2298 133.165 52.0964 137.48 47.3093L144.641 38.7196C146.906 35.7665 149.077 32.7324 151.329 29.7658C151.882 29.0106 152.475 28.296 153.001 27.5274L154.538 25.1945L157.667 20.5558L159.258 18.2499C159.797 17.4948 160.323 16.7127 160.782 15.9036L163.708 11.13C164.949 9.14773 166.836 5.65527 169.533 7.07116C172.352 8.5275 172.702 11.7908 170.585 15.4991C169.277 17.7106 168.077 19.9894 166.634 22.12L162.292 28.4982L160.162 31.7076C159.487 32.7998 158.651 33.7707 157.923 34.8225C156.413 36.8857 154.956 38.9893 153.568 41.1333C145.126 53.4853 134.46 64.0977 123.281 73.9415C113.127 82.7201 101.975 90.2176 90.4998 97.1487L82.2472 101.76C80.8583 102.516 79.5233 103.365 78.1074 104.053L73.8597 106.129L69.5986 108.206C68.1692 108.867 66.7668 109.635 65.2835 110.175C62.3438 111.348 59.4042 112.494 56.4375 113.6C53.9024 114.625 51.246 115.286 48.6165 116.014L40.701 118.077L32.6641 119.574C29.9806 120.046 27.3376 120.666 24.6272 120.949C22.0921 121.286 19.139 122.324 16.3477 122.716C14.0553 123.147 10.1716 123.349 7.85228 123.309C6.85441 123.282 5.81613 123.228 4.85872 123.417C0.435754 124.32 -0.791324 123.322 0.503204 119.708C0.786381 118.913 0.35481 117.942 1.36616 117.335C1.40661 117.308 1.48751 117.254 1.52797 117.227C4.53505 114.841 7.79833 115.542 11.0481 115.205C26.8656 113.128 42.4404 109.231 57.3275 103.5C59.6064 102.596 61.9258 101.828 64.1642 100.83L70.8526 97.7959C75.37 95.8946 79.5637 93.3325 83.7979 90.9188C86.1442 89.6242 88.1535 87.8038 90.5942 86.6037L90.5537 86.6307C92.9 85.0529 95.2195 83.4212 97.5928 81.9244C106.385 75.8698 115.204 69.0331 122.796 62.1695C123.092 61.8728 123.402 61.4009 123.834 61.0098Z" fill="black"/>
</svg>
